<?xml version="1.0" encoding="UTF-8"?>
<svg xmlns="http://www.w3.org/2000/svg" xmlns:xlink="http://www.w3.org/1999/xlink" width="65px" height="80px" viewBox="0 0 65 80" version="1.1">
<g id="surface1">
<path style=" stroke:none;fill-rule:nonzero;fill:rgb(0%,0%,0%);fill-opacity:1;" d="M 29.410156 4.109375 C 29.058594 4.160156 28.011719 4.332031 27.042969 4.480469 C 18.765625 5.816406 11.589844 11.980469 8.671875 20.296875 C 7.851562 22.648438 7.851562 22.671875 7.875 27.226562 C 7.875 31.359375 7.949219 32.027344 8.550781 34.234375 C 10.167969 40.222656 13.734375 47.5 18.667969 54.902344 C 23.753906 62.5 29.558594 70.046875 30.980469 70.890625 C 31.378906 71.113281 31.652344 70.941406 32.824219 69.679688 C 35.117188 67.179688 41.945312 57.871094 46.78125 50.621094 C 48.722656 47.746094 51.992188 40.71875 53.359375 36.507812 C 54.480469 33.09375 54.933594 30.421875 54.90625 27.226562 C 54.855469 20.914062 52.664062 15.667969 48.101562 11.113281 C 43.789062 6.808594 38.429688 4.40625 32.425781 4.109375 C 31.105469 4.058594 29.757812 4.035156 29.410156 4.109375 Z M 34.894531 14.234375 C 40.375 15.667969 44.585938 20.347656 45.386719 25.867188 C 45.835938 28.984375 45.1875 32.351562 43.640625 35.046875 C 42.894531 36.335938 40.5 39.109375 40.125 39.109375 C 40.003906 39.109375 39.777344 38.492188 39.605469 37.746094 L 39.304688 36.386719 L 36.460938 36.386719 C 34.917969 36.386719 33.648438 36.285156 33.648438 36.164062 C 33.648438 36.039062 33.996094 35.816406 34.394531 35.644531 C 35.640625 35.125 37.882812 32.699219 38.683594 31.039062 C 39.976562 28.265625 39.902344 24.332031 38.503906 21.535156 C 36.910156 18.367188 33.421875 16.039062 29.984375 15.890625 C 27.863281 15.765625 27.214844 15.914062 27.640625 16.433594 C 27.863281 16.707031 27.839844 17.152344 27.515625 18.292969 C 27.089844 19.777344 27.089844 19.902344 27.640625 22.351562 C 28.164062 24.726562 28.1875 25.199219 27.988281 30.566406 L 27.789062 36.261719 L 26.917969 36.386719 C 26.09375 36.507812 26.042969 36.558594 25.871094 37.746094 C 25.597656 39.453125 25.320312 40.421875 25.023438 40.519531 C 24.648438 40.644531 22.679688 39.28125 21.332031 37.972656 C 19.613281 36.285156 18.691406 34.828125 17.894531 32.574219 C 16.625 28.960938 17.023438 24.257812 18.867188 21.039062 C 20.835938 17.625 24.300781 15.027344 28.136719 14.132812 C 29.585938 13.785156 33.421875 13.835938 34.894531 14.234375 Z M 29.90625 17.472656 C 30.304688 18.492188 30.207031 18.8125 29.53125 18.8125 C 28.863281 18.8125 28.835938 18.761719 29.058594 17.597656 C 29.257812 16.660156 29.585938 16.609375 29.90625 17.472656 Z M 34.941406 18.566406 C 36.515625 19.800781 37.261719 20.71875 38.082031 22.453125 C 38.683594 23.738281 38.757812 24.160156 38.757812 26.484375 C 38.757812 28.613281 38.65625 29.308594 38.207031 30.246094 C 37.285156 32.253906 36.1875 33.589844 34.621094 34.628906 C 32.800781 35.839844 31.902344 35.992188 33.347656 34.828125 C 34.667969 33.785156 35.941406 32.128906 36.664062 30.445312 C 37.160156 29.28125 37.261719 28.6875 37.261719 26.359375 C 37.261719 23.761719 37.234375 23.566406 36.386719 21.90625 C 35.839844 20.792969 34.992188 19.652344 34.070312 18.714844 C 32.375 17.078125 32.925781 16.980469 34.941406 18.566406 Z M 33.820312 19.628906 C 34.542969 20.371094 35.441406 21.660156 35.816406 22.453125 C 36.4375 23.738281 36.515625 24.132812 36.515625 26.484375 C 36.488281 28.761719 36.414062 29.257812 35.839844 30.472656 C 35.140625 31.933594 32.824219 34.652344 32.273438 34.652344 C 31.828125 34.652344 31.628906 32.796875 31.679688 29.453125 C 31.703125 28.019531 31.652344 26.164062 31.527344 25.347656 C 31.40625 24.257812 31.453125 23.339844 31.753906 22.054688 C 31.976562 21.089844 32.101562 20.027344 32.027344 19.679688 C 31.953125 19.332031 31.851562 18.785156 31.777344 18.414062 C 31.652344 17.871094 31.703125 17.820312 32.074219 18.046875 C 32.324219 18.167969 33.121094 18.886719 33.820312 19.628906 Z M 28.089844 20.472656 C 28.039062 20.867188 27.988281 20.59375 27.988281 19.925781 C 27.988281 19.234375 28.039062 18.933594 28.089844 19.234375 C 28.136719 19.554688 28.136719 20.097656 28.089844 20.472656 Z M 31.40625 20.246094 C 31.40625 20.742188 31.226562 21.78125 31.03125 22.527344 C 30.578125 24.183594 30.558594 25.273438 30.980469 26.734375 C 31.304688 27.921875 31.328125 28.292969 31.054688 30.445312 C 30.980469 31.1875 31.003906 32.527344 31.152344 33.414062 C 31.40625 35.148438 31.054688 36.164062 30.78125 34.503906 C 30.679688 33.960938 30.40625 32.472656 30.132812 31.140625 C 29.882812 29.828125 29.660156 28.515625 29.660156 28.242188 C 29.660156 27.945312 29.558594 27.722656 29.433594 27.722656 C 29.335938 27.722656 29.234375 29.257812 29.210938 31.113281 C 29.210938 34.035156 28.910156 36.214844 28.5625 35.867188 C 28.511719 35.816406 28.539062 33.390625 28.636719 30.496094 C 28.8125 25.667969 28.761719 24.503906 28.261719 22.027344 L 28.089844 21.164062 L 28.636719 21.832031 C 28.9375 22.226562 29.410156 22.527344 29.660156 22.527344 C 30.359375 22.527344 30.980469 21.433594 31.003906 20.171875 C 31.03125 18.886719 31.40625 18.960938 31.40625 20.246094 Z M 30.105469 20.496094 C 30.207031 21.507812 29.757812 22.179688 29.257812 21.757812 C 28.886719 21.460938 28.785156 20.027344 29.085938 19.703125 C 29.484375 19.308594 30.03125 19.726562 30.105469 20.496094 Z M 30.207031 34.527344 C 30.207031 34.875 30.230469 35.296875 30.257812 35.445312 C 30.28125 35.621094 30.058594 35.792969 29.808594 35.839844 C 29.457031 35.914062 29.382812 35.839844 29.511719 35.519531 C 29.585938 35.296875 29.660156 34.828125 29.660156 34.503906 C 29.660156 33.714844 30.15625 33.738281 30.207031 34.527344 Z M 38.582031 37.546875 C 38.703125 37.796875 38.878906 38.414062 38.957031 38.910156 C 39.128906 40 38.78125 40.273438 36.1875 41.261719 C 33.421875 42.277344 28.785156 42.300781 26.570312 41.285156 C 26.019531 41.066406 26.019531 41.015625 26.34375 39.777344 C 26.515625 39.085938 26.667969 38.339844 26.667969 38.121094 C 26.667969 37.894531 26.769531 37.625 26.917969 37.472656 C 27.042969 37.351562 29.632812 37.226562 32.75 37.179688 C 37.882812 37.128906 38.382812 37.152344 38.582031 37.546875 Z M 34.519531 44.652344 C 37.035156 45.816406 38.207031 47.625 38.207031 50.273438 C 38.207031 53.019531 36.589844 55.246094 33.921875 56.140625 C 33.445312 56.3125 32.199219 56.433594 31.128906 56.433594 L 29.160156 56.433594 L 29.160156 58.292969 C 29.160156 60.621094 28.761719 61.140625 26.96875 61.140625 C 24.699219 61.140625 24.800781 61.507812 24.722656 52.746094 C 24.648438 45.296875 24.675781 45.046875 25.171875 44.554688 C 25.621094 44.109375 25.96875 44.058594 29.484375 44.058594 C 32.949219 44.058594 33.371094 44.109375 34.519531 44.652344 Z M 34.519531 44.652344 "/>
<path style=" stroke:none;fill-rule:nonzero;fill:rgb(0%,0%,0%);fill-opacity:1;" d="M 29.160156 50.246094 L 29.160156 52.226562 L 30.90625 52.226562 C 32.453125 52.226562 32.75 52.152344 33.273438 51.609375 C 33.671875 51.238281 33.894531 50.71875 33.894531 50.246094 C 33.894531 49.777344 33.671875 49.257812 33.273438 48.886719 C 32.75 48.339844 32.453125 48.265625 30.90625 48.265625 L 29.160156 48.265625 Z M 29.160156 50.246094 "/>
</g>
</svg>
