<?xml version="1.0" standalone="no"?>
<!DOCTYPE svg PUBLIC "-//W3C//DTD SVG 20010904//EN"
 "http://www.w3.org/TR/2001/REC-SVG-20010904/DTD/svg10.dtd">
<svg version="1.0" xmlns="http://www.w3.org/2000/svg"
 width="381.000000pt" height="46.000000pt" viewBox="0 0 381.000000 46.000000"
 preserveAspectRatio="xMidYMid meet">

<g transform="translate(0.000000,46.000000) scale(0.100000,-0.100000)"
fill="#000000" stroke="none">
<path d="M95 373 c-11 -3 -23 -10 -26 -15 -9 -14 -4 -231 5 -246 9 -16 68 -16
84 0 7 7 12 25 12 40 0 28 0 28 68 28 44 0 81 7 109 19 89 41 83 125 -12 161
-33 13 -208 22 -240 13z m199 -69 c22 -8 20 -41 -3 -54 -11 -5 -42 -10 -70
-10 l-51 0 0 35 0 35 54 0 c30 0 61 -3 70 -6z"/>
<path d="M653 367 c-12 -6 -63 -64 -113 -127 -84 -104 -90 -115 -74 -127 31
-23 71 -16 94 17 21 30 23 30 114 30 89 0 93 -1 121 -30 29 -31 66 -38 95 -20
13 8 13 12 1 32 -29 46 -172 218 -191 228 -23 12 -20 12 -47 -3z m55 -128 c17
-27 12 -31 -38 -27 l-42 3 21 27 c24 30 39 29 59 -3z"/>
<path d="M973 374 c-22 -5 -23 -9 -23 -135 l0 -129 25 -6 c14 -3 36 -3 50 0
21 5 25 12 25 41 l0 35 55 0 c53 0 56 -1 81 -40 27 -40 44 -47 92 -34 28 8 28
22 -3 64 -25 33 -25 34 -5 52 26 24 35 61 21 87 -23 41 -86 63 -195 66 -56 2
-111 1 -123 -1z m215 -76 c31 -31 -5 -58 -79 -58 l-59 0 0 35 0 35 63 0 c36 0
68 -5 75 -12z"/>
<path d="M1372 370 c-22 -9 -23 -12 -20 -137 3 -126 3 -128 27 -131 12 -2 34
-1 47 2 21 6 24 12 24 56 0 28 2 50 4 50 3 0 40 -25 84 -55 84 -58 106 -64
137 -41 26 18 12 34 -70 82 -35 21 -62 41 -60 45 3 3 36 25 75 49 77 45 86 67
38 84 -25 9 -37 3 -112 -47 -46 -31 -86 -57 -90 -57 -3 0 -6 20 -6 45 0 40 -3
47 -26 55 -14 6 -26 10 -27 9 -1 0 -12 -4 -25 -9z"/>
<path d="M1773 370 c-22 -9 -23 -14 -23 -128 0 -133 5 -146 62 -140 l33 3 3
133 c2 110 0 132 -12 132 -8 0 -20 2 -28 4 -7 3 -23 1 -35 -4z"/>
<path d="M2108 373 c-10 -2 -61 -59 -114 -126 -88 -111 -95 -122 -78 -134 31
-23 68 -16 92 17 22 30 24 30 115 30 91 0 94 -1 122 -30 29 -31 66 -38 95 -20
19 12 13 23 -92 152 -67 84 -107 122 -120 117 -2 -1 -11 -3 -20 -6z m60 -158
c-3 -4 -25 -5 -48 -3 l-42 3 22 28 23 29 25 -26 c14 -14 23 -28 20 -31z"/>
<path d="M2868 370 c-16 -9 -18 -27 -18 -128 0 -79 4 -122 12 -130 15 -15 174
-16 238 -1 25 5 62 21 83 35 90 59 79 145 -24 197 -48 24 -70 29 -165 33 -70
3 -115 1 -126 -6z m232 -75 c94 -49 42 -127 -85 -129 l-60 -1 -3 73 -3 72 61
0 c35 0 74 -6 90 -15z"/>
<path d="M3424 367 c-119 -40 -168 -122 -112 -192 76 -96 306 -102 388 -9 36
42 41 98 10 136 -47 60 -197 94 -286 65z m176 -76 c17 -13 26 -29 28 -54 3
-32 -1 -39 -30 -57 -54 -33 -151 -25 -191 15 -22 22 -22 68 1 88 42 38 143 42
192 8z"/>
<path d="M2402 238 c3 -131 3 -133 27 -136 12 -2 34 -1 47 2 21 6 23 12 26 82
l3 76 102 -82 c93 -74 106 -81 140 -78 l38 3 3 133 3 133 -48 -3 -48 -3 -3
-72 c-2 -40 -6 -73 -10 -73 -5 0 -49 34 -100 75 -84 69 -96 75 -137 75 l-46 0
3 -132z"/>
</g>
</svg>
