<?xml version="1.0" standalone="no"?>
<!DOCTYPE svg PUBLIC "-//W3C//DTD SVG 20010904//EN"
 "http://www.w3.org/TR/2001/REC-SVG-20010904/DTD/svg10.dtd">
<svg version="1.0" xmlns="http://www.w3.org/2000/svg"
 width="626.000000pt" height="447.000000pt" viewBox="0 0 626.000000 447.000000"
 preserveAspectRatio="xMidYMid meet">

<g transform="translate(0.000000,447.000000) scale(0.100000,-0.100000)"
fill="#000000" stroke="none">
<path d="M2330 3545 l0 -155 35 0 c30 0 35 3 35 23 0 19 8 26 39 36 71 21 107
102 78 174 -21 50 -68 77 -134 77 l-53 0 0 -155z m112 68 c22 -20 23 -51 2
-81 -29 -41 -44 -28 -44 38 0 64 9 73 42 43z"/>
<path d="M2611 3549 c-28 -82 -51 -152 -51 -155 0 -2 15 -4 34 -4 26 0 36 5
41 20 9 30 97 29 116 -1 10 -15 23 -20 45 -17 l31 3 -49 153 -49 152 -33 0
-34 0 -51 -151z m103 -26 c6 -20 4 -23 -18 -23 -29 0 -31 6 -15 47 11 30 19
24 33 -24z"/>
<path d="M2860 3545 l0 -155 29 0 c27 0 30 3 33 37 4 50 22 52 54 4 24 -36 31
-41 66 -41 l40 0 -23 38 c-13 20 -27 44 -32 53 -7 11 -5 23 6 40 22 30 22 98
1 128 -22 31 -73 51 -129 51 l-45 0 0 -155z m112 68 c10 -9 18 -21 18 -26 0
-18 -32 -47 -52 -47 -15 0 -18 8 -18 45 0 50 17 59 52 28z"/>
<path d="M3120 3545 l0 -155 35 0 c35 0 35 0 35 45 0 25 4 45 8 45 4 0 28 -20
52 -45 41 -42 48 -45 95 -45 l50 1 -78 72 c-42 40 -77 77 -77 84 0 6 35 43 77
82 l77 71 -50 0 c-46 0 -53 -4 -94 -45 -24 -25 -48 -45 -52 -45 -4 0 -8 20 -8
45 0 45 0 45 -35 45 l-35 0 0 -155z"/>
<path d="M3410 3545 l0 -155 30 0 30 0 0 155 0 155 -30 0 -30 0 0 -155z"/>
<path d="M3520 3545 l0 -155 35 0 34 0 3 93 3 92 50 -92 c49 -92 50 -93 87
-93 l38 0 0 155 0 155 -35 0 -34 0 -3 -87 -3 -88 -48 88 c-48 87 -48 87 -88
87 l-39 0 0 -155z"/>
<path d="M3870 3678 c-55 -38 -74 -72 -74 -133 0 -59 17 -91 68 -129 22 -17
45 -21 117 -24 l89 -3 0 86 0 85 -65 0 -65 0 0 -35 c0 -32 2 -35 30 -35 32 0
40 -14 14 -24 -38 -14 -72 -6 -98 25 -14 17 -26 39 -26 50 0 28 26 75 45 83
27 10 80 7 93 -6 10 -10 18 -7 39 14 l26 26 -34 21 c-47 29 -116 28 -159 -1z"/>
<path d="M2350 3275 l0 -55 85 0 c52 0 85 -4 85 -10 0 -10 -62 -127 -167 -317
l-34 -63 196 0 195 0 0 55 0 55 -100 0 c-55 0 -100 2 -100 5 0 3 45 88 100
190 55 103 100 188 100 190 0 2 -81 4 -180 5 l-180 1 0 -56z"/>
<path d="M2900 3300 c-186 -86 -198 -334 -23 -437 40 -23 59 -28 118 -28 81 0
124 18 179 72 106 107 82 297 -48 377 -65 41 -159 47 -226 16z m160 -105 c69
-36 92 -123 50 -192 -84 -139 -302 -21 -235 128 32 70 116 100 185 64z"/>
<path d="M3280 3075 l0 -245 55 0 55 0 0 140 c0 77 3 140 8 140 4 0 41 -62 82
-138 l75 -137 63 -3 62 -3 0 246 0 245 -55 0 -54 0 -3 -142 -3 -143 -80 142
-80 143 -62 0 -63 0 0 -245z"/>
<path d="M3740 3075 l0 -245 155 0 155 0 0 55 0 55 -100 0 -100 0 0 40 0 40
79 0 79 0 4 55 3 55 -82 0 -83 0 0 40 0 40 100 0 100 0 0 55 0 55 -155 0 -155
0 0 -245z"/>
<path d="M586 2734 c-14 -13 -16 -54 -16 -298 0 -216 3 -286 13 -294 7 -6 71
-12 142 -14 l130 -3 0 -555 0 -555 -192 -3 -193 -2 0 -60 0 -60 2800 0 2800 0
0 60 0 60 -225 0 c-206 0 -248 5 -215 25 6 3 10 39 10 80 l0 74 38 3 37 3 3
54 c2 30 -2 59 -7 64 -7 7 -11 59 -11 128 l0 117 -33 28 c-19 16 -42 34 -53
41 -16 10 -7 12 51 12 48 1 78 6 93 17 48 33 7 84 -68 84 -46 0 -64 -13 -65
-46 -1 -60 -22 -30 -38 55 -20 109 -53 185 -102 240 l-37 41 -368 0 -368 0
-30 -34 c-36 -41 -89 -175 -106 -265 -12 -67 -36 -96 -36 -44 0 16 -5 34 -12
41 -16 16 -71 15 -114 -3 -28 -11 -35 -19 -32 -37 4 -32 43 -48 116 -48 69 0
78 -8 31 -29 -55 -24 -69 -62 -69 -187 0 -64 -4 -114 -11 -121 -5 -5 -9 -32
-7 -59 l3 -49 43 -3 42 -3 0 -78 c0 -48 5 -82 13 -90 10 -10 -1 -11 -53 -9
l-65 3 -3 37 -3 38 -90 0 -89 0 0 -40 0 -40 -92 0 c-72 0 -89 3 -80 12 7 7 12
44 12 94 l0 83 43 3 42 3 3 54 c2 29 0 61 -3 70 -4 9 -6 59 -5 112 l1 95 -55
63 c-31 34 -56 65 -56 70 0 5 31 8 68 7 75 -1 122 19 122 54 0 26 -49 50 -103
50 -50 0 -67 -13 -67 -52 0 -45 -28 -35 -40 15 -35 136 -64 224 -81 248 -41
57 -53 59 -448 59 -391 0 -407 -2 -448 -54 -21 -26 -47 -102 -79 -228 -13 -54
-20 -68 -35 -68 -15 0 -19 7 -19 34 0 39 -11 46 -75 46 -58 0 -104 -35 -86
-67 14 -27 41 -36 116 -38 33 -1 64 -3 68 -3 5 -1 -16 -30 -47 -64 l-56 -63 0
-105 c0 -61 -4 -110 -11 -117 -5 -5 -9 -34 -7 -64 l3 -54 43 -3 42 -3 0 -79
c0 -43 5 -82 10 -85 28 -17 4 -26 -67 -23 l-78 3 -3 38 -3 37 -90 0 -89 0 0
-40 0 -40 -65 0 c-60 0 -80 9 -55 25 6 3 10 40 10 80 0 67 2 75 23 86 12 7 25
17 29 23 4 6 8 79 7 161 0 141 -4 167 -33 236 -6 13 1 18 31 24 75 14 88 36
58 95 -22 42 -48 46 -107 17 l-50 -25 -77 119 c-57 89 -82 120 -101 123 -89
19 -389 38 -500 32 -122 -6 -358 -30 -365 -37 -1 -2 -37 -56 -78 -120 l-76
-116 -52 25 c-47 24 -54 25 -78 11 -32 -18 -51 -80 -31 -103 7 -9 24 -16 37
-16 20 0 24 -4 18 -17 -34 -81 -38 -104 -39 -250 -1 -180 -1 -182 97 -192 4
-1 7 -37 7 -81 0 -47 4 -80 10 -80 6 0 10 -4 10 -10 0 -6 -58 -10 -155 -10
l-155 0 0 555 0 555 23 1 c12 1 74 4 137 8 l115 6 3 295 c2 268 1 296 -15 308
-12 9 -88 12 -294 12 -239 0 -280 -2 -293 -16z m549 -299 l0 -250 -249 -3
c-193 -2 -251 1 -258 10 -4 7 -8 120 -8 250 0 195 3 238 14 245 8 4 124 6 258
3 l243 -5 0 -250z m2732 -445 c18 -10 41 -37 53 -59 20 -40 70 -220 70 -253 0
-17 -30 -18 -496 -18 l-496 0 7 33 c15 66 57 203 73 237 9 19 32 45 51 57 34
23 38 23 370 23 316 0 338 -1 368 -20z m1213 -5 c0 -11 -12 -15 -45 -15 -41 0
-45 -2 -45 -25 0 -25 1 -25 90 -25 89 0 90 0 90 25 0 23 -4 25 -40 25 -29 0
-40 4 -40 15 0 13 24 15 159 15 157 0 160 0 190 -26 17 -14 44 -53 60 -87 32
-67 65 -207 52 -220 -4 -4 -32 -7 -62 -5 l-54 3 -3 53 c-3 46 -6 54 -28 62
-18 7 -24 17 -24 40 l0 30 -65 0 -65 0 0 -30 c0 -23 -6 -33 -24 -40 -22 -8
-25 -16 -28 -62 l-3 -53 -112 -3 -113 -3 0 48 c0 52 -6 66 -32 76 -9 3 -18 18
-20 34 -3 27 -4 28 -68 28 -63 0 -65 -1 -68 -27 -2 -15 -14 -34 -28 -42 -20
-14 -24 -24 -24 -66 l0 -50 -60 0 c-69 0 -68 -2 -45 97 18 76 68 189 97 220
21 22 28 23 190 23 143 0 168 -2 168 -15z m-2963 -20 c81 -9 148 -17 149 -18
14 -16 175 -269 172 -272 -1 -1 -68 4 -148 12 -198 21 -715 21 -905 0 -77 -8
-142 -13 -144 -11 -8 8 175 274 189 274 8 1 67 7 130 14 161 19 385 19 557 1z
m-852 -352 c49 -67 11 -63 577 -63 l519 0 22 23 c12 12 32 35 45 51 15 20 26
26 33 19 11 -11 -47 -90 -83 -109 -33 -19 -1042 -19 -1075 -1 -25 14 -82 86
-83 105 0 22 17 13 45 -25z m-38 -114 c-10 -26 -9 -36 14 -80 15 -27 23 -49
18 -49 -6 0 -28 17 -51 38 -29 28 -40 46 -40 67 0 30 24 55 53 55 15 0 16 -4
6 -31z m147 -18 c25 -25 23 -62 -3 -100 -32 -45 -59 -41 -98 17 -38 55 -42 94
-11 116 19 13 25 13 57 0 20 -8 44 -23 55 -33z m1060 -16 c-1 -39 -48 -107
-78 -113 -22 -5 -51 21 -66 59 -16 38 6 74 63 99 55 25 83 10 81 -45z m60 49
c28 -27 19 -64 -24 -106 -23 -21 -45 -38 -49 -38 -5 0 2 21 15 47 26 50 30 78
14 88 -17 10 -11 25 9 25 11 0 27 -7 35 -16z m1286 -34 c0 -20 -7 -20 -283
-20 -276 0 -283 0 -283 20 0 20 7 20 283 20 276 0 283 0 283 -20z m-1610 0 c0
-6 -117 -10 -330 -10 -213 0 -330 4 -330 10 0 6 117 10 330 10 213 0 330 -4
330 -10z m820 -45 l0 -55 -40 0 -40 0 0 55 0 55 40 0 40 0 0 -55z m170 0 l0
-55 -80 0 -80 0 0 55 0 55 80 0 80 0 0 -55z m830 0 l0 -56 -77 3 -78 3 -3 39
c-5 63 -1 66 83 66 l75 0 0 -55z m90 0 l0 -55 -35 0 -35 0 0 55 0 55 35 0 35
0 0 -55z m588 10 c31 -67 -56 -127 -108 -75 -22 22 -26 51 -9 81 23 44 96 40
117 -6z m477 25 c34 0 66 5 72 11 8 8 13 8 17 0 4 -6 39 -11 82 -11 101 0 94
-18 -8 -23 l-83 -3 88 -2 c50 -1 87 -6 87 -12 0 -6 -37 -11 -87 -12 l-88 -2
88 -3 c109 -5 115 -23 7 -23 -44 0 -80 -3 -80 -7 0 -5 34 -7 75 -7 69 1 90 -5
65 -21 -13 -8 -617 -8 -630 0 -29 18 -4 26 70 23 44 -2 80 0 80 5 0 4 -38 7
-85 7 -114 0 -112 19 3 22 l87 2 -87 3 c-49 2 -88 8 -88 13 0 6 39 11 88 12
l87 2 -82 3 c-46 2 -83 8 -83 13 0 10 95 14 243 10 57 -1 77 2 77 11 0 10 3
10 12 1 7 -7 39 -12 73 -12z m457 -7 c26 -23 24 -78 -4 -97 -47 -33 -108 -4
-108 51 0 55 70 85 112 46z m-3432 -13 c0 -6 -117 -10 -330 -10 -213 0 -330 4
-330 10 0 6 117 10 330 10 213 0 330 -4 330 -10z m1473 -7 c-78 -2 -208 -2
-290 0 -81 1 -17 3 142 3 160 0 226 -2 148 -3z m-1641 -20 c-95 -2 -248 -2
-340 0 -92 1 -14 3 173 3 187 0 262 -2 167 -3z m1774 -23 l0 -30 -281 0 -281
0 0 30 0 30 281 0 281 0 0 -30z m-1606 0 c0 -6 -117 -10 -330 -10 -213 0 -330
4 -330 10 0 6 117 10 330 10 213 0 330 -4 330 -10z m0 -40 c0 -20 -7 -20 -334
-20 -329 0 -334 0 -329 20 5 19 14 20 334 20 322 0 329 0 329 -20z m-650 -84
c0 -2 3 -11 6 -19 9 -23 -24 -49 -47 -37 -19 10 -26 40 -12 53 7 8 53 10 53 3z
m698 -23 c4 -30 -31 -49 -52 -27 -18 18 -18 17 -10 39 10 25 58 16 62 -12z
m1442 -18 l0 -35 101 0 c89 0 100 -2 89 -15 -9 -11 -35 -15 -101 -15 -58 0
-89 -4 -89 -11 0 -12 173 -8 201 5 14 6 16 -1 15 -54 -1 -38 4 -70 12 -81 13
-19 3 -19 -387 -19 -371 0 -426 4 -391 25 6 3 10 36 10 72 0 58 2 64 18 57 28
-13 183 -17 195 -5 8 8 -16 11 -85 11 -73 0 -99 4 -108 15 -11 13 0 15 94 15
l106 0 0 35 0 35 160 0 160 0 0 -35z m1560 -50 l0 -55 -134 0 c-149 0 -146 -1
-146 71 l0 39 140 0 140 0 0 -55z m-2970 -57 c0 -50 5 -81 16 -96 l15 -22
-442 0 c-345 0 -440 3 -431 12 7 7 12 42 12 88 0 42 3 79 6 83 3 3 190 6 415
7 l409 1 0 -73z m2495 42 c3 -5 47 -10 97 -10 81 0 90 -2 95 -20 5 -19 14 -20
149 -20 137 0 144 1 144 20 0 19 7 20 93 20 59 0 97 4 105 12 9 9 12 -5 12
-63 0 -45 5 -80 12 -87 9 -9 -72 -12 -366 -12 -357 0 -378 1 -370 18 5 9 9 47
9 85 0 63 6 80 20 57z"/>
<path d="M780 2435 l0 -175 45 0 45 0 0 80 0 80 51 0 c84 0 118 28 119 98 0
32 -6 49 -25 67 -23 23 -31 25 -130 25 l-105 0 0 -175z m167 99 c10 -26 -11
-49 -46 -52 -30 -3 -31 -2 -31 32 0 34 2 36 35 36 24 0 38 -5 42 -16z"/>
<path d="M4953 1443 c20 -2 54 -2 75 0 20 2 3 4 -38 4 -41 0 -58 -2 -37 -4z"/>
<path d="M5107 1443 c18 -2 50 -2 70 0 21 2 7 4 -32 4 -38 0 -55 -2 -38 -4z"/>
<path d="M4953 1413 c20 -2 54 -2 75 0 20 2 3 4 -38 4 -41 0 -58 -2 -37 -4z"/>
<path d="M5107 1413 c18 -2 50 -2 70 0 21 2 7 4 -32 4 -38 0 -55 -2 -38 -4z"/>
<path d="M4920 1383 c0 -5 29 -8 65 -8 36 0 65 3 65 8 0 4 -29 7 -65 7 -36 0
-65 -3 -65 -7z"/>
<path d="M5080 1383 c0 -5 29 -8 65 -8 36 0 65 3 65 8 0 4 -29 7 -65 7 -36 0
-65 -3 -65 -7z"/>
<path d="M3360 1195 l0 -55 140 0 140 0 0 55 0 55 -140 0 -140 0 0 -55z"/>
</g>
</svg>
